<?xml version="1.0" encoding="UTF-8"?>
<svg width="18px" height="24px" viewBox="0 0 18 24" version="1.1" xmlns="http://www.w3.org/2000/svg" xmlns:xlink="http://www.w3.org/1999/xlink">
    <!-- Generator: Sketch 59.1 (86144) - https://sketch.com -->
    <title>Group 11</title>
    <desc>Created with Sketch.</desc>
    <g id="Page-1" stroke="none" stroke-width="1" fill="none" fill-rule="evenodd" stroke-linecap="round" stroke-linejoin="round">
        <g id="Panels-Search" transform="translate(-806.000000, -643.000000)" stroke="#022950">
            <g id="tble" transform="translate(332.000000, 281.000000)">
                <g id="Download" transform="translate(474.000000, 362.000000)">
                    <g id="Group-11">
                        <path d="M7.5,18.5 L2,18.5 C1.172,18.5 0.5,17.828 0.5,17 L0.5,2 C0.5,1.172 1.172,0.5 2,0.5 L9.5,0.5 L13.5,4.5 L13.5,13.601" id="Stroke-1"></path>
                        <path d="M9.5,0.5 L9.5,3 C9.5,3.828 10.172,4.5 11,4.5 L13.5,4.5" id="Stroke-3"></path>
                        <path d="M7.5,18.5 C7.5,15.739 9.739,13.5 12.5,13.5 C15.261,13.5 17.5,15.739 17.5,18.5 C17.5,21.261 15.261,23.5 12.5,23.5 C9.739,23.5 7.5,21.261 7.5,18.5 Z" id="Stroke-5"></path>
                        <polyline id="Stroke-7" points="14.5 19.5 12.5 21.5 10.5 19.5"></polyline>
                        <line x1="12.5" y1="21.5" x2="12.5" y2="15.5" id="Stroke-9"></line>
                    </g>
                </g>
            </g>
        </g>
    </g>
</svg>