<?xml version="1.0" encoding="UTF-8"?>
<svg width="24px" height="24px" viewBox="0 0 24 24" version="1.1" xmlns="http://www.w3.org/2000/svg" xmlns:xlink="http://www.w3.org/1999/xlink">
    <!-- Generator: Sketch 59.1 (86144) - https://sketch.com -->
    <title>Group 17</title>
    <desc>Created with Sketch.</desc>
    <g id="Page-1" stroke="none" stroke-width="1" fill="none" fill-rule="evenodd">
        <g id="Panels-Search" transform="translate(-719.000000, -643.000000)">
            <g id="tble" transform="translate(332.000000, 281.000000)">
                <g id="View" transform="translate(387.000000, 362.000000)">
                    <g id="Group-17">
                        <path d="M3,11.5 C3,11.776 2.776,12 2.5,12 C2.224,12 2,11.776 2,11.5 C2,11.224 2.224,11 2.5,11 C2.776,11 3,11.224 3,11.5" id="Fill-1" fill="#022950"></path>
                        <path d="M5,11.5 C5,11.776 4.776,12 4.5,12 C4.224,12 4,11.776 4,11.5 C4,11.224 4.224,11 4.5,11 C4.776,11 5,11.224 5,11.5" id="Fill-3" fill="#022950"></path>
                        <path d="M7,11.5 C7,11.776 6.776,12 6.5,12 C6.224,12 6,11.776 6,11.5 C6,11.224 6.224,11 6.5,11 C6.776,11 7,11.224 7,11.5" id="Fill-5" fill="#022950"></path>
                        <path d="M14.5,21.5 L22,21.5 C22.828,21.5 23.5,20.828 23.5,20 L23.5,2 C23.5,1.172 22.828,0.5 22,0.5 L4,0.5 C3.172,0.5 2.5,1.172 2.5,2 L2.5,9.5" id="Stroke-7" stroke="#022950" stroke-linecap="round" stroke-linejoin="round"></path>
                        <path d="M13,23.5 L2,23.5 C1.172,23.5 0.5,22.828 0.5,22 L0.5,11 C0.5,10.172 1.172,9.5 2,9.5 L13,9.5 C13.828,9.5 14.5,10.172 14.5,11 L14.5,22 C14.5,22.828 13.828,23.5 13,23.5 Z" id="Stroke-9" stroke="#022950" stroke-linecap="round" stroke-linejoin="round"></path>
                        <line x1="0.5" y1="13.5" x2="14.5" y2="13.5" id="Stroke-11" stroke="#022950" stroke-linecap="round" stroke-linejoin="round"></line>
                        <line x1="15.5" y1="8.5" x2="17.5" y2="6.5" id="Stroke-13" stroke="#022950" stroke-linecap="round" stroke-linejoin="round"></line>
                        <polyline id="Stroke-15" stroke="#022950" stroke-linecap="round" stroke-linejoin="round" points="16 6.5 17.5 6.5 17.5 8"></polyline>
                    </g>
                </g>
            </g>
        </g>
    </g>
</svg>