<?xml version="1.0" encoding="UTF-8"?>
<svg width="24px" height="22px" viewBox="0 0 24 22" version="1.1" xmlns="http://www.w3.org/2000/svg" xmlns:xlink="http://www.w3.org/1999/xlink">
    <!-- Generator: Sketch 59.1 (86144) - https://sketch.com -->
    <title>Devices</title>
    <desc>Created with Sketch.</desc>
    <g id="Page-1" stroke="none" stroke-width="1" fill="none" fill-rule="evenodd">
        <g id="Manage-Devices" transform="translate(-42.000000, -427.000000)">
            <g id="menu" transform="translate(0.000000, 187.000000)">
                <g id="Devices" transform="translate(42.000000, 240.000000)">
                    <path d="M16.5,4.5 L16.5,2 C16.5,1.172 15.828,0.5 15,0.5 L2,0.5 C1.172,0.5 0.5,1.172 0.5,2 L0.5,20 C0.5,20.828 1.172,21.5 2,21.5 L14,21.5" id="Stroke-1" stroke="#022950" stroke-linecap="round" stroke-linejoin="round"></path>
                    <path d="M9.5,19 C9.5,19.276 9.276,19.5 9,19.5 C8.724,19.5 8.5,19.276 8.5,19 C8.5,18.724 8.724,18.5 9,18.5 C9.276,18.5 9.5,18.724 9.5,19 Z" id="Stroke-3" stroke="#022950" stroke-linecap="round" stroke-linejoin="round"></path>
                    <line x1="0.5" y1="16.5" x2="12.5" y2="16.5" id="Stroke-5" stroke="#022950" stroke-linecap="round" stroke-linejoin="round"></line>
                    <path d="M15,2.5 C15,2.776 14.776,3 14.5,3 C14.224,3 14,2.776 14,2.5 C14,2.224 14.224,2 14.5,2 C14.776,2 15,2.224 15,2.5" id="Fill-7" fill="#022950"></path>
                    <path d="M22,6.5 C22,6.776 21.776,7 21.5,7 C21.224,7 21,6.776 21,6.5 C21,6.224 21.224,6 21.5,6 C21.776,6 22,6.224 22,6.5" id="Fill-9" fill="#022950"></path>
                    <path d="M14,4.5 L22,4.5 C22.828,4.5 23.5,5.172 23.5,6 L23.5,20 C23.5,20.828 22.828,21.5 22,21.5 L14,21.5 C13.172,21.5 12.5,20.828 12.5,20 L12.5,6 C12.5,5.172 13.172,4.5 14,4.5 Z" id="Stroke-11" stroke="#022950" stroke-linecap="round" stroke-linejoin="round"></path>
                    <line x1="17.5" y1="6.5" x2="18.5" y2="6.5" id="Stroke-13" stroke="#022950" stroke-linecap="round" stroke-linejoin="round"></line>
                    <line x1="12.5" y1="19.5" x2="23.5" y2="19.5" id="Stroke-15" stroke="#022950" stroke-linecap="round" stroke-linejoin="round"></line>
                </g>
            </g>
        </g>
    </g>
</svg>