<?xml version="1.0" encoding="UTF-8"?>
<svg width="22px" height="22px" viewBox="0 0 22 22" version="1.1" xmlns="http://www.w3.org/2000/svg" xmlns:xlink="http://www.w3.org/1999/xlink">
    <!-- Generator: Sketch 57 (83077) - https://sketch.com -->
    <title>Panels</title>
    <desc>Created with Sketch.</desc>
    <g id="Page-1" stroke="none" stroke-width="1" fill="none" fill-rule="evenodd" stroke-linecap="round" stroke-linejoin="round">
        <g id="Users" transform="translate(-42.000000, -232.000000)" stroke="#022950">
            <g id="menu" transform="translate(0.000000, 184.000000)">
                <g id="Panels" transform="translate(42.000000, 48.000000)">
                    <path d="M21.5,7 C21.5,6.635 21.294,6.329 21.002,6.154 C18.689,4.779 14.06,2.033 11.726,0.695 C11.511,0.572 11.265,0.5 11,0.5 C10.735,0.5 10.49,0.574 10.274,0.695 C10.274,0.695 3.313,4.783 0.998,6.154 C0.705,6.328 0.5,6.635 0.5,7 C0.5,7.365 0.706,7.671 0.998,7.846 C3.311,9.221 7.939,11.967 10.274,13.305 C10.488,13.428 10.735,13.5 11,13.5 C11.265,13.5 11.512,13.428 11.726,13.305 C14.061,11.967 18.689,9.221 21.002,7.846 C21.294,7.671 21.5,7.365 21.5,7 Z" id="Stroke-1"></path>
                    <path d="M2.9597,9 C2.9597,9 1.4877,9.864 0.9987,10.154 C0.7057,10.328 0.4997,10.635 0.4997,11 C0.4997,11.365 0.7057,11.671 0.9987,11.846 C3.3107,13.221 7.9397,15.967 10.2737,17.305 C10.4887,17.428 10.7347,17.5 10.9997,17.5 C11.2647,17.5 11.5117,17.428 11.7257,17.305 C14.0607,15.967 18.6897,13.221 21.0017,11.846 C21.2947,11.671 21.4997,11.365 21.4997,11 C21.4997,10.635 21.2947,10.328 21.0017,10.154 C20.5117,9.864 19.0407,9 19.0407,9" id="Stroke-3"></path>
                    <path d="M2.9597,13 C2.9597,13 1.4877,13.864 0.9987,14.154 C0.7057,14.328 0.4997,14.635 0.4997,15 C0.4997,15.365 0.7057,15.671 0.9987,15.846 C3.3107,17.221 7.9397,19.967 10.2737,21.305 C10.4887,21.428 10.7347,21.5 10.9997,21.5 C11.2647,21.5 11.5117,21.428 11.7257,21.305 C14.0607,19.967 18.6897,17.221 21.0017,15.846 C21.2947,15.671 21.4997,15.365 21.4997,15 C21.4997,14.635 21.2947,14.328 21.0017,14.154 C20.5117,13.864 19.0407,13 19.0407,13" id="Stroke-5"></path>
                </g>
            </g>
        </g>
    </g>
</svg>