<?xml version="1.0" encoding="UTF-8"?>
<svg width="24px" height="24px" viewBox="0 0 24 24" version="1.1" xmlns="http://www.w3.org/2000/svg" xmlns:xlink="http://www.w3.org/1999/xlink">
    <!-- Generator: Sketch 57 (83077) - https://sketch.com -->
    <title>Reports</title>
    <desc>Created with Sketch.</desc>
    <g id="Page-1" stroke="none" stroke-width="1" fill="none" fill-rule="evenodd" stroke-linecap="round" stroke-linejoin="round">
        <g id="Users" transform="translate(-41.000000, -329.000000)" stroke="#022950">
            <g id="menu" transform="translate(0.000000, 184.000000)">
                <g id="Reports" transform="translate(42.000000, 146.000000)">
                    <polyline id="Stroke-1" points="3 11.0666667 6.36842105 11.0666667 8.89473684 18 12.2631579 5 14.7894737 14.5333333 16.0526316 11.0666667 19 11.0666667"></polyline>
                    <g id="Group-6">
                        <path d="M16.4997462,0.423076923 L16.4997462,4.23076923 C16.4997462,4.93138462 17.0683615,5.5 17.7689769,5.5 L21.5766692,5.5" id="Stroke-2"></path>
                        <path d="M21.5767538,5.5 L21.5767538,20.3076923 C21.5767538,21.0083077 21.0089846,21.5769231 20.3075231,21.5769231 L1.69213846,21.5769231 C0.991523077,21.5769231 0.422907692,21.0083077 0.422907692,20.3076923 L0.422907692,1.69230769 C0.422907692,0.991692308 0.991523077,0.423076923 1.69213846,0.423076923 L16.4998308,0.423076923 L21.5767538,5.5 Z" id="Stroke-4"></path>
                    </g>
                </g>
            </g>
        </g>
    </g>
</svg>