<?xml version="1.0" encoding="UTF-8"?>
<svg width="22px" height="22px" viewBox="0 0 22 22" version="1.1" xmlns="http://www.w3.org/2000/svg" xmlns:xlink="http://www.w3.org/1999/xlink">
    <!-- Generator: Sketch 57 (83077) - https://sketch.com -->
    <title>users</title>
    <desc>Created with Sketch.</desc>
    <g id="Page-1" stroke="none" stroke-width="1" fill="none" fill-rule="evenodd" stroke-linecap="round" stroke-linejoin="round">
        <g id="Users" transform="translate(-42.000000, -281.000000)" stroke="#022950">
            <g id="menu" transform="translate(0.000000, 184.000000)">
                <g id="users" transform="translate(42.000000, 97.000000)">
                    <path d="M16.5,6 C16.5,9.038 14.038,11.5 11,11.5 C7.962,11.5 5.5,9.038 5.5,6 C5.5,2.962 7.962,0.5 11,0.5 C14.038,0.5 16.5,2.962 16.5,6 Z" id="Stroke-1"></path>
                    <path d="M11,13.5 C7.664,13.5 4.629,14.704 2.69,15.7 C1.348,16.389 0.5,17.76 0.5,19.268 L0.5,20 C0.5,20.828 1.172,21.5 2,21.5 L20,21.5 C20.828,21.5 21.5,20.828 21.5,20 L21.5,19.268 C21.5,17.76 20.652,16.389 19.31,15.7 C17.371,14.704 14.336,13.5 11,13.5 Z" id="Stroke-3"></path>
                </g>
            </g>
        </g>
    </g>
</svg>