<?xml version="1.0" encoding="UTF-8"?>
<svg width="16px" height="15px" viewBox="0 0 16 15" version="1.1" xmlns="http://www.w3.org/2000/svg" xmlns:xlink="http://www.w3.org/1999/xlink">
    <!-- Generator: Sketch 59.1 (86144) - https://sketch.com -->
    <title>icon settings</title>
    <desc>Created with Sketch.</desc>
    <g id="Page-1" stroke="none" stroke-width="1" fill="none" fill-rule="evenodd" stroke-linecap="round" stroke-linejoin="round">
        <g id="Report-Copy" transform="translate(-830.000000, -140.000000)" stroke="#022950">
            <g id="Header">
                <g id="Tooltip" transform="translate(813.000000, 81.000000)">
                    <g id="language-settings" transform="translate(18.000000, 59.000000)">
                        <g id="icon-settings" transform="translate(0.000000, 1.000000)">
                            <path d="M9.724,3.60933333 L5.666,7.66666667 L4,8 L4.33333333,6.33266667 L8.39066667,2.276 C8.56733333,2.09933333 8.80733333,2 9.05733333,2 L9.05733333,2 C9.578,2 10,2.422 10,2.94266667 C10,3.19266667 9.90066667,3.43266667 9.724,3.60933333 Z" id="Stroke-1"></path>
                            <line x1="8" y1="3" x2="9" y2="4" id="Stroke-3"></line>
                            <path d="M13,0 L1,0 C0.448,0 0,0.448 0,1 L0,14 L3.33333333,10.6666667 L13,10.6666667 C13.552,10.6666667 14,10.2186667 14,9.66666667 L14,1 C14,0.448 13.552,0 13,0 Z" id="Stroke-5"></path>
                        </g>
                    </g>
                </g>
            </g>
        </g>
    </g>
</svg>